# xmcd CD database file
#
# Track frame offsets:
#	183
#	27108
#	40033
#	53408
#	72033
#	85583
#	109408
#	132108
#	151383
#	161758
#	171558
#	184633
#	194908
#	216208
#	227383
#	238458
#	252708
#	264633
#	286158
#	302358
#
# Disc length: 4194 seconds
#
# Revision: 0
# Processed by: cddbd v1.5.1PL0 Copyright (c) Steve Scherf et al.
# Submitted via: CDex 1.51
#
DISCID=19106014
DTITLE=Memphis Slim - Déja Vu
DYEAR=1900
DGENRE=Blues
TTITLE0=Freedom
TTITLE1=I Am The Blues
TTITLE2=Ramble This Highway
TTITLE3=Gambler´s Blues
TTITLE4=Every Day I Have The Blues
TTITLE5=Rock Me, Baby
TTITLE6=Lend Me Your Love
TTITLE7=Gone Again
TTITLE8=All By Myself
TTITLE9=Caledonia
TTITLE10=Only Fools Have Fun
TTITLE11=Little Lonely Girl
TTITLE12=Forty Years Or More
TTITLE13=Ballin´ The Jack
TTITLE14=Let´s Get With It
TTITLE15=Broadway Boogie
TTITLE16=A Long Time Baby
TTITLE17=Strollin´ Thru The Park
TTITLE18=This Little Woman
TTITLE19=Sassy Mae
EXTD=
EXTT0=
EXTT1=
EXTT2=
EXTT3=
EXTT4=
EXTT5=
EXTT6=
EXTT7=
EXTT8=
EXTT9=
EXTT10=
EXTT11=
EXTT12=
EXTT13=
EXTT14=
EXTT15=
EXTT16=
EXTT17=
EXTT18=
EXTT19=
PLAYORDER=
